<svg xmlns="http://www.w3.org/2000/svg" xmlns:xlink="http://www.w3.org/1999/xlink" width="512" zoomAndPan="magnify" viewBox="0 0 384 383.999986" height="512" preserveAspectRatio="xMidYMid meet" version="1.0"><defs><clipPath id="a139890c79"><path d="M 78.964844 78.964844 L 304.714844 78.964844 L 304.714844 304.714844 L 78.964844 304.714844 Z M 78.964844 78.964844 " clip-rule="nonzero"/></clipPath></defs><path fill="#1800ad" d="M 384 192 C 384 298.039062 298.039062 384 192 384 C 85.960938 384 0 298.039062 0 192 C 0 85.960938 85.960938 0 192 0 C 298.039062 0 384 85.960938 384 192 Z M 89.601562 99.839844 C 89.601562 94.183594 94.183594 89.601562 99.839844 89.601562 L 155.136719 89.601562 L 155.136719 110.078125 L 110.082031 110.078125 L 110.082031 155.136719 L 89.601562 155.136719 Z M 273.921875 110.078125 L 228.863281 110.078125 L 228.863281 89.601562 L 284.160156 89.601562 C 289.816406 89.601562 294.398438 94.183594 294.398438 99.839844 L 294.398438 155.136719 L 273.921875 155.136719 Z M 110.082031 273.921875 L 110.082031 228.863281 L 89.601562 228.863281 L 89.601562 284.160156 C 89.601562 289.816406 94.183594 294.398438 99.839844 294.398438 L 155.136719 294.398438 L 155.136719 273.921875 Z M 273.921875 273.921875 L 273.921875 228.863281 L 294.398438 228.863281 L 294.398438 284.160156 C 294.398438 289.816406 289.816406 294.398438 284.160156 294.398438 L 228.863281 294.398438 L 228.863281 273.921875 Z M 89.601562 202.238281 L 294.398438 202.238281 L 294.398438 181.761719 L 89.601562 181.761719 Z M 89.601562 202.238281 " fill-opacity="1" fill-rule="evenodd"/><g clip-path="url(#a139890c79)"><path fill="#ffffff" d="M 78.964844 112.875 C 78.964844 94.148438 94.148438 78.964844 112.875 78.964844 L 141.132812 78.964844 L 141.132812 101.574219 L 112.875 101.574219 C 106.632812 101.574219 101.574219 106.632812 101.574219 112.875 L 101.574219 141.132812 L 78.964844 141.132812 Z M 271.121094 101.574219 L 242.863281 101.574219 L 242.863281 78.964844 L 271.121094 78.964844 C 289.851562 78.964844 305.03125 94.148438 305.03125 112.875 L 305.03125 141.132812 L 282.425781 141.132812 L 282.425781 112.875 C 282.425781 106.632812 277.363281 101.574219 271.121094 101.574219 Z M 101.574219 242.863281 L 101.574219 271.121094 C 101.574219 277.363281 106.632812 282.425781 112.875 282.425781 L 141.132812 282.425781 L 141.132812 305.03125 L 112.875 305.03125 C 94.148438 305.03125 78.964844 289.851562 78.964844 271.121094 L 78.964844 242.863281 Z M 282.425781 271.121094 L 282.425781 242.863281 L 305.03125 242.863281 L 305.03125 271.121094 C 305.03125 289.851562 289.851562 305.03125 271.121094 305.03125 L 242.863281 305.03125 L 242.863281 282.425781 L 271.121094 282.425781 C 277.363281 282.425781 282.425781 277.363281 282.425781 271.121094 Z M 282.425781 271.121094 " fill-opacity="1" fill-rule="evenodd"/></g><path fill="#ffffff" d="M 135.480469 180.695312 L 248.515625 180.695312 L 248.515625 203.300781 L 135.480469 203.300781 Z M 135.480469 180.695312 " fill-opacity="1" fill-rule="evenodd"/></svg>